<?xml version="1.0" standalone="no"?><!DOCTYPE svg PUBLIC "-//W3C//DTD SVG 1.1//EN" "http://www.w3.org/Graphics/SVG/1.1/DTD/svg11.dtd"><svg t="1645887768019" class="icon" viewBox="0 0 1024 1024" version="1.1" xmlns="http://www.w3.org/2000/svg" p-id="9415" xmlns:xlink="http://www.w3.org/1999/xlink" width="32" height="32"><defs><style type="text/css"></style></defs><path d="M512.308 958.647c-81.554 0-161.368-22.194-230.812-64.178-14.686-8.88-19.394-27.981-10.515-42.669 8.879-14.685 27.983-19.395 42.668-10.513 59.744 36.12 128.44 55.211 198.658 55.211 212.047 0 384.56-172.512 384.56-384.56s-172.51-384.56-384.559-384.56-384.56 172.513-384.56 384.56c0 74.844 21.506 147.38 62.193 209.77 9.374 14.376 5.321 33.63-9.054 43.005-14.376 9.37-33.628 5.32-43.004-9.054-47.29-72.514-72.285-156.79-72.285-243.72 0-119.32 46.466-231.498 130.838-315.87 84.374-84.375 196.552-130.84 315.872-130.84 119.32 0 231.498 46.465 315.871 130.84 84.372 84.371 130.838 196.55 130.838 315.87s-46.466 231.5-130.838 315.872c-84.371 84.37-196.55 130.836-315.871 130.836z" p-id="9416" fill="#b1b1b1"></path><path d="M261.474 559.664c21.329-23.136 39.499-48.627 54.506-76.472 14.998-27.837 27.387-58.386 37.15-91.657h-80.267c-13.381 0-20.067-6.862-20.067-20.607 0-13.737 6.686-20.611 20.067-20.611h82.436v-80.265c0-13.017 6.864-19.525 20.61-19.525 13.736 0 20.609 6.508 20.609 19.525v80.265h62.91c13.017 0 19.525 6.874 19.525 20.611 0 6.506-1.719 11.483-5.151 14.914-3.441 3.439-8.228 5.338-14.372 5.692-9.407 0.367-18.44 0.545-27.118 0.545-8.677 0-18.26 0.186-28.744 0.542a4182.647 4182.647 0 0 0 22.78 37.15c7.948 12.838 16.083 26.668 24.404 41.488 9.398 15.551 17.084 28.839 23.05 39.863 5.965 11.033 9.846 17.99 11.66 20.882 3.974 7.234 5.965 13.558 5.965 18.98 0 5.79-2.711 10.67-8.134 14.642-5.423 3.986-10.127 5.968-14.102 5.968-8.677 0-15.727-5.781-21.15-17.358-10.848-25.667-28.024-58.572-51.523-98.705v298.29c0 13.017-6.873 19.527-20.61 19.527-13.745 0-20.609-6.51-20.609-19.526V490.245a1606.02 1606.02 0 0 1-12.474 23.318c-4.339 7.958-9.406 16.46-15.185 25.49-22.423 36.88-37.244 57.678-44.473 62.37-5.422 3.982-10.22 5.964-14.372 5.964-4.16 0-8.77-2.524-13.83-7.59a40.12 40.12 0 0 1-4.61-6.782c-1.272-2.346-1.898-5.057-1.898-8.132 0-3.071 0.991-6.595 2.983-10.577 1.984-3.972 5.332-8.856 10.034-14.642z m453.397-170.297v305.34c0 26.033-6.152 44.471-18.437 55.32-12.297 10.847-30.195 16.269-53.692 16.269-9.764 0-20.432-0.907-32-2.711-11.575-1.812-23.684-4.164-36.336-7.053-13.016-2.897-23.864-5.607-32.54-8.133-8.677-2.537-14.465-4.705-17.357-6.51-3.983-2.169-6.966-4.972-8.948-8.404-1.991-3.443-2.983-6.967-2.983-10.576 0-13.746 7.05-20.61 21.152-20.61 1.804 0 3.973 0.177 6.508 0.541 2.525 0.357 5.6 1.085 9.22 2.169 20.608 6.146 37.964 10.755 52.065 13.834 14.101 3.067 25.302 4.609 33.625 4.609 15.185 0 24.946-2.168 29.286-6.51 4.696-4.338 7.05-12.66 7.05-24.944V389.367H500.647c-12.66 0-18.982-6.684-18.982-20.065 0-13.373 6.322-20.07 18.982-20.07h170.838V271.68c0-13.737 7.229-20.61 21.693-20.61 14.458 0 21.693 6.873 21.693 20.61v77.554h42.305c12.65 0 18.982 6.696 18.982 20.069 0 13.38-6.332 20.065-18.982 20.065h-42.305z m-184.395 30.914c5.059 0 9.399 1.814 13.016 5.424 0.72 0.728 2.169 2.803 4.34 6.235 2.168 3.443 5.424 8.593 9.761 15.458 3.612 5.787 7.407 12.389 11.39 19.796a950.21 950.21 0 0 1 12.203 23.593 556.608 556.608 0 0 1 11.93 25.488 3497.877 3497.877 0 0 1 10.576 24.404c3.255 7.595 6.237 15.731 8.948 24.406a4536.75 4536.75 0 0 0 7.866 24.948c2.525 7.595 4.423 14.558 5.693 20.882 1.263 6.328 1.9 10.937 1.9 13.83 0 11.927-6.873 17.895-20.61 17.895-4.703 0-8.865-1.712-12.474-5.15-3.62-3.435-6.873-10.213-9.764-20.34-7.593-26.753-17.083-53.235-28.472-79.454-11.39-26.21-25.041-52.515-40.947-78.911l0.543 1.628c-5.788-6.508-9.041-12.11-9.763-16.814-0.728-4.694 0-8.676 2.17-11.932 2.17-3.253 5.152-5.777 8.949-7.59 3.796-1.805 7.32-3.07 10.575-3.798h2.17z" p-id="9417" fill="#b1b1b1"></path></svg>