<?xml version="1.0" standalone="no"?><!DOCTYPE svg PUBLIC "-//W3C//DTD SVG 1.1//EN" "http://www.w3.org/Graphics/SVG/1.1/DTD/svg11.dtd"><svg t="1645887486557" class="icon" viewBox="0 0 1181 1024" version="1.1" xmlns="http://www.w3.org/2000/svg" p-id="36717" width="36.90625" height="32" xmlns:xlink="http://www.w3.org/1999/xlink"><defs><style type="text/css"></style></defs><path d="M1112.221598 677.572755c-41.825985-63.014977-98.460964-110.43496-164.233941-137.68895 29.065989-21.345992 53.484981-49.623982 70.971975-82.86497 20.479993-38.281986 31.269989-82.15597 31.269989-126.502954 0-138.79195-103.107963-251.746909-229.847917-251.746909a33.397988 33.397988 0 0 0-32.688989 34.028987c0 18.824993 14.650995 34.106988 32.689989 34.106988 90.662967 0 164.469941 82.31297 164.46994 183.531934 0 101.375963-73.806973 183.689934-164.46994 183.689933a33.397988 33.397988 0 0 0-32.689989 34.027988v0.158c0 18.824993 14.650995 34.106988 32.689989 34.106988 163.209941 0 295.777893 147.533947 295.777893 328.781881 0 18.747993 14.649995 34.028988 32.688988 34.028987a33.397988 33.397988 0 0 0 32.689988-34.028987 419.051849 419.051849 0 0 0-69.317975-233.629916z m-366.985867-71.443974a473.953829 473.953829 0 0 0-118.231958-60.179978 293.572894 293.572894 0 0 0 143.201949-251.509909C770.205722 132.016952 636.84977 0 472.851829 0 308.933888 0 175.655937 132.016952 175.655937 294.439894c0 55.13798 15.595994 109.173961 45.213983 155.804943 24.889991 39.462986 59.076979 72.545974 99.248964 96.570965a468.282831 468.282831 0 0 0-120.201956 60.888978c-40.329985 28.27799-75.854973 62.541977-105.629962 101.611964A460.326834 460.326834 0 0 0 0.002 989.576642 34.657987 34.657987 0 0 0 34.816987 1023.99963a34.657987 34.657987 0 0 0 34.815988-34.499988c0-106.339962 41.904985-206.218925 117.680957-281.836898A398.729856 398.729856 0 0 1 469.77983 590.689787c3.465999 0.394 7.089997 0 10.555996-0.708l2.755999-0.63c103.581963 2.046999 200.861927 43.321984 274.825901 116.892958A394.633857 394.633857 0 0 1 875.599684 988.238643a34.657987 34.657987 0 0 0 34.815987 34.421987 34.657987 34.657987 0 0 0 34.815987-34.500987 459.775834 459.775834 0 0 0-94.365965-280.181899 470.25183 470.25183 0 0 0-105.549962-101.848963zM472.615829 78.769972c130.283953 0 236.307915 106.023962 236.307915 236.307914S602.899782 551.384801 472.615829 551.384801 236.307915 445.359839 236.307915 315.076886 342.331876 78.768972 472.615829 78.768972z" p-id="36718" fill="#b1b1b1"></path></svg>