<svg t="1646145580299" class="icon" viewBox="0 0 1024 1024" version="1.1" xmlns="http://www.w3.org/2000/svg" p-id="2047" width="32" height="32"><path d="M440 112m72 0l0 0q72 0 72 72l0 0q0 72-72 72l0 0q-72 0-72-72l0 0q0-72 72-72Z" p-id="2048" fill="#ffffff"></path><path d="M440 440m72 0l0 0q72 0 72 72l0 0q0 72-72 72l0 0q-72 0-72-72l0 0q0-72 72-72Z" p-id="2049" fill="#ffffff"></path><path d="M440 768m72 0l0 0q72 0 72 72l0 0q0 72-72 72l0 0q-72 0-72-72l0 0q0-72 72-72Z" p-id="2050" fill="#ffffff"></path></svg>