<svg t="1645881835034" class="icon" viewBox="0 0 1024 1024" version="1.1" xmlns="http://www.w3.org/2000/svg" p-id="6314" width="32" height="32"><path d="M573.9 301.875a200.038 200.038 0 1 0 400.078 0 200.038 200.038 0 1 0-400.077 0z" fill="#5CF4A1" p-id="6315"></path><path d="M924.467 706.253a24.32 24.32 0 0 1-24.269 24.269H754.432a24.371 24.371 0 0 0-24.269 24.32 24.269 24.269 0 0 0 24.269 24.268h48.589a24.32 24.32 0 0 1 24.269 24.32 24.32 24.32 0 0 1-24.27 24.27H738.51A388.762 388.762 0 0 1 122.88 390.45H74.291a24.32 24.32 0 0 1 0-48.589h97.28a24.269 24.269 0 0 0 6.81-47.564l0.768-0.973H122.88a24.32 24.32 0 1 1 0-48.589h101.632a388.762 388.762 0 0 1 619.52 437.248h56.32a24.32 24.32 0 0 1 24.115 24.269z" fill="#58E000" p-id="6316"></path><path d="M565.811 478.874a3.84 3.84 0 0 0-4.557 4.608c3.175 14.745 7.885 40.96 9.984 60.057 3.636 32.205-28.57 62.31-53.606 70.759-39.424 13.568-84.89-18.688-95.13-56.32-11.776-43.981 12.647-97.588 53.3-115.047 4.505-2.099 9.01-3.891 13.568-5.99 9.318-4.25 4.812-11.162 3.276-17.51-4.198-17.46-6.604-34.919 2.407-51.2 13.568-24.423 48.793-43.674 76.185-31.95a276.48 276.48 0 0 1 34.663 16.59 25.19 25.19 0 0 1 10.547 28.262c-5.734 15.36-20.787 18.995-36.762 9.677a196.198 196.198 0 0 0-17.459-9.933 16.23 16.23 0 0 0-23.808 15.36 150.374 150.374 0 0 0 1.946 18.022 18.483 18.483 0 0 0 13.568 14.9 200.346 200.346 0 0 1 29.389 8.908c38.81 17.152 66.56 45.159 79.513 87.04 24.064 77.67-21.094 155.085-87.961 184.627a182.016 182.016 0 0 1-116.839 13.21 185.6 185.6 0 0 1-126.464-104.806c-18.073-40.96-22.886-82.79-8.755-127.079 18.995-59.238 56.934-99.635 114.74-121.907a23.45 23.45 0 0 1 28.006 9.728 21.146 21.146 0 0 1-6.042 29.542 259.891 259.891 0 0 1-25.293 13.568c-31.897 16.23-51.763 42.752-64.41 75.879-24.729 64.41 9.319 139.11 65.639 168.345 51.763 27.085 122.573 16.23 160.82-28.313a106.291 106.291 0 0 0 23.244-95.181c-5.12-25.6-34.509-59.29-53.709-63.846z m-53.401 5.99a6.144 6.144 0 0 0-7.988-4.506c-33.28 11.47-47.513 47.258-31.948 76.442a28.006 28.006 0 0 0 30.105 13.824c14.183-4.198 24.115-14.438 22.016-27.7-2.97-19.506-7.936-38.809-12.185-58.06z" fill="#FFFFFF" p-id="6317"></path></svg>