<svg t="1645886658002" class="icon" viewBox="0 0 1241 1024" version="1.1" xmlns="http://www.w3.org/2000/svg" p-id="9654" width="32" height="32"><path d="M1163.636364 0c42.845091 0 77.575758 34.730667 77.575757 77.575758v868.848484c0 42.845091-34.730667 77.575758-77.575757 77.575758H77.575758c-42.845091 0-77.575758-34.730667-77.575758-77.575758V77.575758C0 34.730667 34.730667 0 77.575758 0h1086.060606zM616.727273 201.69697c-24.382061 0-42.666667 15.64703-42.666667 36.507151v547.591758c0 20.867879 18.284606 36.507152 42.666667 36.507151s42.666667-15.64703 42.666666-36.507151V238.204121C659.393939 217.336242 641.109333 201.69697 616.727273 201.69697z m-186.181818 108.60606c-24.382061 0-42.666667 15.616-42.666667 36.429576v338.292364C387.878788 705.838545 406.163394 721.454545 430.545455 721.454545s42.666667-15.616 42.666666-36.429575V346.732606C473.212121 325.91903 454.927515 310.30303 430.545455 310.30303z m372.363636 0c-24.382061 0-42.666667 15.616-42.666667 36.429576v338.292364c0 20.813576 18.284606 36.429576 42.666667 36.429575s42.666667-15.616 42.666667-36.429575V346.732606c0-20.813576-18.284606-36.429576-42.666667-36.429576z m-558.545455 93.090909c-24.382061 0-42.666667 15.709091-42.666666 36.654546v136.145454c0 20.945455 18.284606 36.654545 42.666666 36.654546s42.666667-15.709091 42.666667-36.654546v-136.145454c0-20.945455-18.284606-36.654545-42.666667-36.654546z m744.727273 0c-24.382061 0-42.666667 15.709091-42.666667 36.654546v136.145454c0 20.945455 18.284606 36.654545 42.666667 36.654546s42.666667-15.709091 42.666667-36.654546v-136.145454c0-20.945455-18.284606-36.654545-42.666667-36.654546z" p-id="9655" fill="#969696"></path></svg>