<?xml version="1.0" standalone="no"?><!DOCTYPE svg PUBLIC "-//W3C//DTD SVG 1.1//EN" "http://www.w3.org/Graphics/SVG/1.1/DTD/svg11.dtd"><svg t="1645890714512" class="icon" viewBox="0 0 1024 1024" version="1.1" xmlns="http://www.w3.org/2000/svg" p-id="22110" xmlns:xlink="http://www.w3.org/1999/xlink" width="32" height="32"><defs><style type="text/css"></style></defs><path d="M542.785344 1023.959096v-190.643139c155.537314-15.661104 277.594735-144.738668 282.994058-302.975643 1.078842-1.078842 1.620819-8.640962 1.62082-10.803759 0-12.961443-10.803759-23.765202-23.765202-23.765202-12.961443 0-23.765202 10.803759-23.765202 23.765202 0 147.975194-119.894624 267.869818-267.869818 267.869818s-267.869818-119.894624-267.869818-267.869818c0-12.961443-10.803759-23.765202-23.765202-23.765202s-23.765202 10.803759-23.765202 23.765202c0 2.162797 0.541977 9.719804 0.541978 10.261781 5.399323 163.641411 135.555729 295.955501 298.655162 304.054486v190.101161" p-id="22111" fill="#000000"></path><path d="M512 724.767069c112.874482 0 204.683424-91.808942 204.683424-204.683424V204.683424c0-112.874482-91.808942-204.683424-204.683424-204.683424S307.316576 91.808942 307.316576 204.683424v315.400221c0 112.869369 91.808942 204.683424 204.683424 204.683424z" p-id="22112" fill="#000000"></path></svg>